<?xml version="1.0" standalone="no"?>
<!DOCTYPE svg PUBLIC "-//W3C//DTD SVG 20010904//EN"
 "http://www.w3.org/TR/2001/REC-SVG-20010904/DTD/svg10.dtd">
<svg version="1.0" xmlns="http://www.w3.org/2000/svg"
 width="512.000000pt" height="512.000000pt" viewBox="0 0 512.000000 512.000000"
 preserveAspectRatio="xMidYMid meet">

<g transform="translate(0.000000,512.000000) scale(0.100000,-0.100000)"
fill="cyan" stroke="none">
<path d="M1725 4054 c-423 -76 -801 -356 -1004 -745 -205 -391 -407 -1327
-347 -1609 19 -91 69 -195 132 -273 155 -193 535 -354 882 -374 l108 -6 84
104 c46 57 102 126 124 152 47 57 44 62 -54 96 -163 57 -344 166 -455 274
l-70 68 80 -39 c160 -79 491 -192 740 -253 704 -173 1337 -93 1930 244 l100
57 -65 -61 c-121 -111 -302 -216 -475 -275 -57 -19 -85 -34 -85 -44 0 -8 51
-78 113 -155 l113 -140 115 2 c324 5 718 162 898 360 74 80 133 193 157 300
13 60 16 102 11 192 -21 394 -193 1059 -355 1374 -93 182 -264 380 -430 500
-207 149 -467 244 -717 263 l-90 6 -29 -30 c-15 -17 -26 -35 -22 -40 3 -5 45
-22 93 -37 208 -64 466 -181 644 -291 49 -30 89 -57 89 -59 0 -2 -39 14 -87
34 -794 344 -1770 358 -2580 37 -76 -30 -139 -53 -141 -51 -7 6 167 110 276
164 173 86 412 174 560 206 34 7 43 30 20 53 -16 16 -162 14 -263 -4z m281
-1353 c122 -57 201 -162 225 -298 28 -159 -67 -330 -224 -404 -86 -40 -142
-46 -223 -24 -212 57 -340 277 -279 481 23 80 86 168 149 209 120 80 233 92
352 36z m1325 20 c131 -41 228 -142 264 -275 32 -117 6 -241 -72 -343 -64 -84
-222 -153 -320 -139 -66 9 -163 56 -217 106 -53 49 -100 136 -117 218 -31 153
60 331 210 407 95 48 159 54 252 26z"/>
</g>
</svg>
