<?xml version="1.0" standalone="no"?>
<!DOCTYPE svg PUBLIC "-//W3C//DTD SVG 20010904//EN"
 "http://www.w3.org/TR/2001/REC-SVG-20010904/DTD/svg10.dtd">
<svg version="1.0" xmlns="http://www.w3.org/2000/svg"
 width="512.000000pt" height="512.000000pt" viewBox="0 0 512.000000 512.000000"
 preserveAspectRatio="xMidYMid meet">

<g transform="translate(0.000000,512.000000) scale(0.100000,-0.100000)"
fill="cyan" stroke="none">
<path d="M1159 4734 c-6 -16 -22 -69 -36 -119 -45 -163 -44 -446 3 -579 14
-38 14 -39 -26 -86 -67 -80 -147 -216 -180 -308 -53 -145 -70 -246 -70 -429
-1 -817 379 -1260 1182 -1381 l116 -17 -45 -60 c-57 -74 -91 -149 -110 -240
-8 -38 -15 -70 -16 -71 -16 -11 -133 -46 -197 -58 -101 -20 -146 -20 -233 -1
-148 31 -274 122 -371 268 -74 112 -127 170 -208 227 -89 63 -180 93 -276 93
-79 0 -124 -20 -130 -60 -4 -28 37 -74 106 -119 78 -52 166 -137 214 -207 21
-31 70 -121 108 -200 79 -164 138 -237 253 -315 144 -95 352 -137 569 -113 62
6 125 14 141 18 l27 5 0 -241 c0 -291 -4 -307 -82 -341 -28 -12 -47 -25 -42
-30 13 -12 1664 6 1676 18 7 7 -6 17 -35 30 -25 11 -51 30 -57 42 -9 17 -13
155 -14 509 -1 469 -2 489 -24 566 -27 99 -70 187 -116 241 l-35 41 112 17
c390 59 646 172 847 375 222 224 321 492 345 936 17 311 -77 613 -251 805
l-37 41 19 82 c15 65 19 118 18 262 0 162 -3 190 -27 279 -15 54 -34 110 -43
124 -16 24 -18 24 -118 20 -81 -4 -122 -12 -207 -41 -120 -40 -269 -112 -399
-193 l-87 -54 -109 25 c-223 50 -330 60 -619 59 -288 -1 -378 -9 -601 -59
l-114 -26 -97 60 c-126 80 -275 152 -393 192 -77 25 -117 33 -207 37 l-113 4
-11 -28z"/>
</g>
</svg>
