<?xml version="1.0" standalone="no"?>
<!DOCTYPE svg PUBLIC "-//W3C//DTD SVG 20010904//EN"
 "http://www.w3.org/TR/2001/REC-SVG-20010904/DTD/svg10.dtd">
<svg version="1.0" xmlns="http://www.w3.org/2000/svg"
 width="512.000000pt" height="512.000000pt" viewBox="0 0 512.000000 512.000000"
 preserveAspectRatio="xMidYMid meet">

<g transform="translate(0.000000,512.000000) scale(0.100000,-0.100000)"
fill="cyan" stroke="none">
<path d="M399 5092 c-172 -63 -317 -210 -375 -382 -20 -61 -24 -90 -24 -198 0
-208 41 -313 175 -448 89 -90 197 -153 302 -174 95 -20 274 -8 355 23 89 34
171 91 240 165 116 126 163 252 162 432 0 98 -4 127 -28 195 -46 134 -126 239
-244 319 -110 75 -162 90 -337 93 -143 3 -154 1 -226 -25z"/>
<path d="M3625 3496 c-175 -34 -305 -83 -431 -161 -94 -59 -242 -199 -305
-289 l-49 -69 -2 224 -3 224 -515 0 -515 0 -3 -1712 -2 -1713 540 0 539 0 4
968 c3 1067 2 1046 68 1226 54 147 133 241 253 300 174 85 412 87 567 5 157
-84 239 -248 269 -538 6 -63 10 -460 10 -1032 l0 -929 535 0 535 0 0 1113 c0
1207 -2 1249 -56 1497 -93 420 -311 695 -647 815 -170 61 -266 76 -507 81
-154 2 -235 0 -285 -10z"/>
<path d="M80 1715 l0 -1715 535 0 535 0 0 1715 0 1715 -535 0 -535 0 0 -1715z"/>
</g>
</svg>
