<?xml version="1.0" standalone="no"?>
<!DOCTYPE svg PUBLIC "-//W3C//DTD SVG 20010904//EN"
 "http://www.w3.org/TR/2001/REC-SVG-20010904/DTD/svg10.dtd">
<svg version="1.0" xmlns="http://www.w3.org/2000/svg"
 width="512.000000pt" height="512.000000pt" viewBox="0 0 512.000000 512.000000"
 preserveAspectRatio="xMidYMid meet">

<g transform="translate(0.000000,512.000000) scale(0.100000,-0.100000)"
fill="cyan" stroke="none">
<path d="M4810 4693 c-37 -13 -902 -343 -1470 -561 -344 -132 -1181 -452
-1860 -712 -679 -259 -1271 -489 -1316 -510 -53 -26 -94 -54 -122 -84 -39 -43
-42 -49 -42 -105 0 -58 1 -60 47 -100 53 -47 30 -39 825 -286 l477 -148 1283
803 c706 442 1327 830 1381 863 82 51 105 61 145 61 40 1 47 -2 50 -20 2 -16
-228 -229 -1103 -1013 -608 -546 -1105 -994 -1105 -995 0 0 -18 -251 -40 -556
-22 -305 -40 -577 -40 -604 l0 -49 51 7 c29 4 68 16 89 26 20 10 177 153 349
317 172 164 316 299 319 300 4 2 268 -189 587 -423 319 -234 604 -438 634
-451 64 -31 170 -41 224 -24 54 18 121 99 146 174 11 34 196 885 411 1891 375
1758 390 1834 390 1935 0 82 -5 115 -19 146 -22 47 -74 99 -114 114 -29 11
-150 14 -177 4z"/>
</g>
</svg>
